<svg height="512" viewBox="0 0 64 64" width="512" xmlns="http://www.w3.org/2000/svg"><g id="Outline"><g><path d="m42.536 34.535a1 1 0 0 0 -1.414-1.414 3 3 0 0 1 -4.244 0 1 1 0 0 0 -1.414 1.414 5.007 5.007 0 0 0 7.072 0z"/><path d="m37.379 25.5a1 1 0 0 0 -2 0 4 4 0 0 0 4 4 1 1 0 0 0 0-2 2 2 0 0 1 -2-2z"/><path d="m38.9 40.447a1 1 0 0 0 -1.79-.894c-.019.039-.191.039-.21 0a1 1 0 1 0 -1.79.894 2.119 2.119 0 0 0 3.79 0z"/><path d="m38 16a3 3 0 0 0 -3 3 1 1 0 0 0 2 0 1 1 0 0 1 1-1 1 1 0 0 0 0-2z"/><circle cx="36" cy="47" r="1"/><circle cx="43" cy="24" r="1"/><circle cx="46" cy="32" r="1"/><path d="m25 36a4.985 4.985 0 0 0 3.536-1.462 1 1 0 0 0 -1.414-1.414 3 3 0 0 1 -4.244 0 1 1 0 0 0 -1.414 1.414 4.985 4.985 0 0 0 3.536 1.462z"/><path d="m28.621 25.5a1 1 0 0 0 -2 0 2 2 0 0 1 -2 2 1 1 0 1 0 0 2 4 4 0 0 0 4-4z"/><path d="m27 41.618a2.106 2.106 0 0 0 1.9-1.171 1 1 0 0 0 -1.79-.894c-.019.039-.191.039-.21 0a1 1 0 1 0 -1.79.894 2.106 2.106 0 0 0 1.89 1.171z"/><path d="m26 16a1 1 0 0 0 0 2 1 1 0 0 1 1 1 1 1 0 0 0 2 0 3 3 0 0 0 -3-3z"/><circle cx="28" cy="47" r="1"/><circle cx="21" cy="24" r="1"/><circle cx="18" cy="32" r="1"/><path d="m39 54a4 4 0 0 0 -3.858 3h-7.142v-5.094a5.971 5.971 0 0 0 2.024-.723 1 1 0 1 0 -1.008-1.727 4 4 0 0 1 -6.016-3.456c0-.081.017-.169.023-.253a7.991 7.991 0 0 0 1.977.253 1 1 0 0 0 0-2 6 6 0 0 1 -2.15-.4.854.854 0 0 0 -.1-.017c-.032-.018-.056-.046-.09-.061a5.959 5.959 0 0 1 -3.441-3.984 9.022 9.022 0 0 0 2.781.462 1 1 0 0 0 0-2 7 7 0 0 1 -3.462-.915c-.012-.008-.021-.019-.033-.026a7.028 7.028 0 0 1 -3.505-6.059 6.952 6.952 0 0 1 .68-3 5.964 5.964 0 0 0 3.32 1 1 1 0 0 0 0-2 3.969 3.969 0 0 1 -2.828-1.172l-.011-.007c-.013-.015-.018-.033-.032-.048a3.991 3.991 0 0 1 2.871-6.773 4.09 4.09 0 0 1 .8.08 3.984 3.984 0 0 1 2.477 1.632 1 1 0 0 0 1.64-1.147 6 6 0 0 0 -10.567 1.435h-3.35v-5.08a7 7 0 0 0 -1-13.92 6.929 6.929 0 0 0 -3.013.688 1 1 0 1 0 .863 1.8 4.955 4.955 0 0 1 2.15-.488 4.983 4.983 0 0 1 3 8.976 2.921 2.921 0 0 0 -.782-1.976 3 3 0 1 0 -4.438 0 2.979 2.979 0 0 0 -.78 1.976 4.949 4.949 0 0 1 -1.51-6.127 1 1 0 1 0 -1.8-.862 6.929 6.929 0 0 0 -.69 3.013 7 7 0 0 0 6 6.92v6.08a1 1 0 0 0 1 1h4a5.951 5.951 0 0 0 1.175 3.556 8.9 8.9 0 0 0 -.643 1.444h-5.716a3 3 0 1 0 0 2h5.248a9.241 9.241 0 0 0 -.064 1 9.027 9.027 0 0 0 4.015 7.485 7.952 7.952 0 0 0 .254 1.515h-6.269a1 1 0 0 0 -1 1v3.059a9.014 9.014 0 1 0 8.747 4.375 1 1 0 1 0 -1.722 1.017 6.971 6.971 0 0 1 -2.025 9.285v-.736a3.975 3.975 0 0 0 -1.173-2.827c-.065-.065-.141-.113-.21-.173a4 4 0 1 0 -5.235 0 3.974 3.974 0 0 0 -1.382 3v.736a6.992 6.992 0 0 1 7.549-11.76 1 1 0 1 0 1.017-1.723 9.006 9.006 0 0 0 -3.566-1.185v-2.068h6.083a7.973 7.973 0 0 0 3.017 2.985 5.405 5.405 0 0 0 -.1 1.015 6.006 6.006 0 0 0 5 5.91v6.09a1 1 0 0 0 1 1h8.142a3.993 3.993 0 1 0 3.858-5zm-30-46a1 1 0 1 1 -1 1 1 1 0 0 1 1-1zm-1 5a1 1 0 0 1 1-1 .975.975 0 0 1 .712.307.952.952 0 0 1 .288.693v.9a5 5 0 0 1 -2 0zm-3 17a1 1 0 1 1 1-1 1 1 0 0 1 -1 1zm4 22a2 2 0 1 1 2 2 2 2 0 0 1 -2-2zm0 6a2 2 0 0 1 4 0v1.7a6.927 6.927 0 0 1 -4 0zm30 2a2 2 0 1 1 2-2 2 2 0 0 1 -2 2z"/><path d="m23 8a3 3 0 0 0 2.816-2h5.184v5.54a5.99 5.99 0 0 0 -9.875 3.237 1 1 0 1 0 1.958.407 4 4 0 0 1 7.917.816v12a1 1 0 0 0 2 0v-12a4 4 0 0 1 8 0 2.771 2.771 0 0 1 -.039.389l-.018.132a1 1 0 0 0 .571 1.038c.168.077.317.182.476.273a5.991 5.991 0 0 0 -1.911 1.733 1 1 0 0 0 1.64 1.147 3.986 3.986 0 0 1 2.473-1.631h.008a3.989 3.989 0 0 1 4.68 2.981.993.993 0 0 0 .054.251 4 4 0 0 1 .066.687 4.055 4.055 0 0 1 -1.172 2.828 3.969 3.969 0 0 1 -2.828 1.172 1 1 0 0 0 0 2 5.958 5.958 0 0 0 4.243-1.758l.067-.078a5.973 5.973 0 0 0 1.69-4.164v-.032l.97.031h.03a1 1 0 0 0 1-1v-6.079a7 7 0 0 0 -1-13.92 6.929 6.929 0 0 0 -3.013.688 1 1 0 1 0 .863 1.8 4.955 4.955 0 0 1 2.15-.488 4.983 4.983 0 0 1 3 8.976 2.921 2.921 0 0 0 -.782-1.976 3 3 0 1 0 -4.438 0 2.979 2.979 0 0 0 -.78 1.976 4.949 4.949 0 0 1 -1.51-6.127 1 1 0 0 0 -1.8-.862 6.982 6.982 0 0 0 5.31 9.933v5.047l-.366-.012a6 6 0 0 0 -5.634-3.955 6.272 6.272 0 0 0 -.671.037 8.063 8.063 0 0 0 -1.33-.96c0-.025 0-.051 0-.077a5.99 5.99 0 0 0 -10-4.46v-6.54a1 1 0 0 0 -1-1h-6.183a2.995 2.995 0 1 0 -2.816 4zm29 0a1 1 0 1 1 -1 1 1 1 0 0 1 1-1zm-1 5a1 1 0 0 1 1-1 .975.975 0 0 1 .712.307.952.952 0 0 1 .288.693v.9a5 5 0 0 1 -2 0zm-28-9a1 1 0 1 1 -1 1 1 1 0 0 1 1-1z"/><path d="m55 45.08v-3.08a1 1 0 0 0 -1-1h-7.61a8.206 8.206 0 0 0 .587-2.509 9.039 9.039 0 0 0 3.96-6.491h3.205a4 4 0 1 0 0-2h-3.208c-.007-.063 0-.127-.013-.189a1 1 0 1 0 -1.982.261 7.207 7.207 0 0 1 .061.928 7.028 7.028 0 0 1 -3.5 6.059c-.01.006-.018.016-.028.023a7 7 0 0 1 -3.472.918 1 1 0 0 0 0 2 9.011 9.011 0 0 0 2.788-.461 5.977 5.977 0 0 1 -3.449 3.987c-.034.015-.058.043-.09.061a.819.819 0 0 0 -.1.017 6 6 0 0 1 -2.149.396 1 1 0 0 0 0 2 7.991 7.991 0 0 0 1.977-.253c.006.084.023.172.023.253a4 4 0 0 1 -8 0v-14a1 1 0 0 0 -2 0v14a6 6 0 0 0 12 0 5.326 5.326 0 0 0 -.1-1.015 7.906 7.906 0 0 0 2.335-1.985h7.765v2.081a6.986 6.986 0 0 0 -2.013.607 1 1 0 1 0 .863 1.8 4.955 4.955 0 0 1 2.15-.488 4.983 4.983 0 0 1 3 8.976 2.921 2.921 0 0 0 -.782-1.976 3 3 0 1 0 -4.438 0 2.979 2.979 0 0 0 -.78 1.976 4.949 4.949 0 0 1 -1.51-6.127 1 1 0 0 0 -1.8-.862 7 7 0 1 0 7.31-3.907zm3-16.08a2 2 0 1 1 -2 2 2 2 0 0 1 2-2zm-4 22a1 1 0 1 1 -1 1 1 1 0 0 1 1-1zm-1 5.9v-.9a1 1 0 0 1 1-1 .975.975 0 0 1 .712.307.952.952 0 0 1 .288.693v.9a5 5 0 0 1 -2 0z"/></g></g></svg>